<svg xmlns="http://www.w3.org/2000/svg" viewBox="0 0 549.64 413.69"><defs><style>.cls-1{fill:#f9f9f9;}</style></defs><g id="Vector_Graphics" data-name="Vector Graphics"><path class="cls-1" d="M50.76,37.79l547.49,0-1-1.06,0,411.56,1-1.06-547.49,0,1.06,1.06,0-411.56Zm0,411.53,547.49,0h1.06v-1l0-411.56V35.7h-1.06l-547.49,0h-1v1.06l0,411.56v1Z" transform="translate(-49.67 -35.67)"/><polygon class="cls-1" points="276.48 412.63 275.25 1.06 273.15 1.09 274.39 412.63 276.48 412.63"/><path class="cls-1" d="M126.29,152.71H49.71V341.09h77.6v-1l0-186.27v-1.08Zm0,186.27H50.75l1.06,1V153.77l-1.05,1.06h75.53l-1.07-1,0,186.27Z" transform="translate(-49.67 -35.67)"/><path class="cls-1" d="M597.9,152.76l-75.5,0h-1.06V341.13H599V152.76Zm0,186.27H522.4l1,1,0-186.27-1.06,1.06h75.5l-1-1.06,0,186.27Z" transform="translate(-49.67 -35.67)"/><path class="cls-1" d="M574.33,211.5h23.91l-1.06-1.07v73l1.06-1.06H574.33l1,1.06v-73Zm0,73h24.95v-1.06l0-73v-1h-26V284.5Z" transform="translate(-49.67 -35.67)"/><path class="cls-1" d="M78.45,206.84H49.71v77.62h29.8V206.84Zm0,75.5H50.75l1.06,1.06V207.88L50.75,209h27.7l-1.06-1.06v75.5Z" transform="translate(-49.67 -35.67)"/><path class="cls-1" d="M280.87,246.94a43,43,0,1,1,43,43A43,43,0,0,1,280.87,246.94Zm43,45.09a45.11,45.11,0,1,0-45.12-45.09A45.15,45.15,0,0,0,323.87,292Z" transform="translate(-49.67 -35.67)"/><path class="cls-1" d="M521.89,274.92h0c-.61-.25-14.74-6.55-14.74-28.67,0-26.62,15.53-28.44,15.69-28.48l-.22-2.08c-.19,0-17.57,2.05-17.58,30.56,0,23.57,15.34,30.34,16,30.61Z" transform="translate(-49.67 -35.67)"/><path class="cls-1" d="M126.72,216.31h0c.63.23,15.93,5.93,15.8,28-.09,26.34-15.66,29.74-15.84,29.78l.43,2.05c.68-.14,17.42-3.78,17.53-31.83.11-23.61-17.06-29.92-17.24-30Z" transform="translate(-49.67 -35.67)"/></g></svg>